<svg width="25" height="24" viewBox="0 0 25 24" fill="none" xmlns="http://www.w3.org/2000/svg">
<path d="M18.8 8C18.8 6.4087 18.1679 4.88258 17.0427 3.75736C15.9175 2.63214 14.3913 2 12.8 2C11.2087 2 9.68263 2.63214 8.55741 3.75736C7.43219 4.88258 6.80005 6.4087 6.80005 8C6.80005 15 3.80005 17 3.80005 17H21.8C21.8 17 18.8 15 18.8 8Z" stroke="white" stroke-width="2" stroke-linecap="round" stroke-linejoin="round"/>
<path d="M14.5301 21C14.3543 21.3031 14.1019 21.5547 13.7983 21.7295C13.4947 21.9044 13.1504 21.9965 12.8001 21.9965C12.4497 21.9965 12.1055 21.9044 11.8018 21.7295C11.4982 21.5547 11.2459 21.3031 11.0701 21" stroke="white" stroke-width="2" stroke-linecap="round" stroke-linejoin="round"/>
</svg>
