<svg width="25" height="24" viewBox="0 0 25 24" fill="none" xmlns="http://www.w3.org/2000/svg">
<path d="M3.80005 18.75V8.06251C3.80005 6.71985 4.33342 5.43218 5.28282 4.48278C6.23222 3.53338 7.51989 3.00001 8.86255 3.00001H16.7375C17.4024 3.00001 18.0607 3.13095 18.6749 3.38537C19.2891 3.63978 19.8472 4.01268 20.3173 4.48278C20.7874 4.95288 21.1603 5.51096 21.4147 6.12517C21.6691 6.73938 21.8 7.39769 21.8 8.06251V15.9375C21.8 16.6023 21.6691 17.2606 21.4147 17.8748C21.1603 18.4891 20.7874 19.0471 20.3173 19.5172C19.8472 19.9873 19.2891 20.3602 18.6749 20.6146C18.0607 20.8691 17.4024 21 16.7375 21H6.05005C5.45331 21 4.88102 20.763 4.45906 20.341C4.0371 19.919 3.80005 19.3467 3.80005 18.75V18.75Z" stroke="white" stroke-width="2" stroke-linecap="round" stroke-linejoin="round"/>
<path d="M8.78491 11.7408H12.7224C13.3191 11.7408 13.8914 11.9778 14.3134 12.3998C14.7354 12.8218 14.9724 13.3941 14.9724 13.9908C14.9724 14.5875 14.7354 15.1598 14.3134 15.5818C13.8914 16.0037 13.3191 16.2408 12.7224 16.2408H8.78491V8.36579C8.78491 8.06742 8.90344 7.78127 9.11442 7.5703C9.3254 7.35932 9.61154 7.24079 9.90991 7.24079H11.5974C12.1941 7.24079 12.7664 7.47784 13.1884 7.8998C13.6104 8.32176 13.8474 8.89405 13.8474 9.49079C13.8474 10.0875 13.6104 10.6598 13.1884 11.0818C12.7664 11.5037 12.1941 11.7408 11.5974 11.7408H9.90991M17.7849 16.2408H17.7962" stroke="white" stroke-width="2" stroke-linecap="round" stroke-linejoin="round"/>
</svg>
