<svg width="25" height="24" viewBox="0 0 25 24" fill="none" xmlns="http://www.w3.org/2000/svg">
<path d="M3.56818 4.93109C2.93629 5.56298 2.5813 6.42 2.5813 7.31363V16.6864C2.5813 17.58 2.93629 18.437 3.56818 19.0689C4.20007 19.7008 5.05709 20.0558 5.95072 20.0558H19.6494C20.543 20.0558 21.4 19.7008 22.0319 19.0689C22.6638 18.437 23.0188 17.58 23.0188 16.6864V7.31363C23.0188 6.42 22.6638 5.56297 22.0319 4.93109C21.4 4.2992 20.543 3.94421 19.6494 3.94421H5.95072C5.05709 3.94421 4.20007 4.2992 3.56818 4.93109ZM4.76458 6.12749C5.07916 5.8129 5.50583 5.63617 5.95072 5.63617H19.6494C20.0943 5.63617 20.5209 5.8129 20.8355 6.12749C21.1501 6.44207 21.3268 6.86874 21.3268 7.31363V8.2701H4.27326V7.31363C4.27326 6.86874 4.44999 6.44207 4.76458 6.12749ZM4.76458 17.8725C4.44999 17.558 4.27326 17.1313 4.27326 16.6864V9.96206H21.3268V16.6864C21.3268 17.1313 21.1501 17.558 20.8355 17.8725C20.5209 18.1871 20.0943 18.3638 19.6494 18.3638H5.95072C5.50583 18.3638 5.07916 18.1871 4.76458 17.8725ZM18.5679 14.038H16.405C16.1806 14.038 15.9654 14.1271 15.8068 14.2857C15.6481 14.4444 15.559 14.6596 15.559 14.8839C15.559 15.1083 15.6481 15.3235 15.8068 15.4821C15.9654 15.6408 16.1806 15.7299 16.405 15.7299H18.5679C18.7923 15.7299 19.0075 15.6408 19.1661 15.4821C19.3248 15.3235 19.4139 15.1083 19.4139 14.8839C19.4139 14.6596 19.3248 14.4444 19.1661 14.2857C19.0075 14.1271 18.7923 14.038 18.5679 14.038Z" fill="white" stroke="white" stroke-width="0.25"/>
</svg>
