<svg width="25" height="24" viewBox="0 0 25 24" fill="none" xmlns="http://www.w3.org/2000/svg">
<path d="M14.6377 2.8125H7.2877C6.80036 2.8125 6.33298 3.00609 5.98839 3.35069C5.64379 3.69529 5.4502 4.16266 5.4502 4.65V19.35C5.4502 19.8373 5.64379 20.3047 5.98839 20.6493C6.33298 20.9939 6.80036 21.1875 7.2877 21.1875H18.3127C18.8 21.1875 19.2674 20.9939 19.612 20.6493C19.9566 20.3047 20.1502 19.8373 20.1502 19.35V8.325L14.6377 2.8125Z" stroke="white" stroke-width="2" stroke-linecap="round" stroke-linejoin="round"/>
<path d="M16.4752 16.5938H9.12524" stroke="white" stroke-width="2" stroke-linecap="round" stroke-linejoin="round"/>
<path d="M16.4752 12.9188H9.12524" stroke="white" stroke-width="2" stroke-linecap="round" stroke-linejoin="round"/>
<path d="M10.9627 9.24377H10.044H9.12524" stroke="white" stroke-width="2" stroke-linecap="round" stroke-linejoin="round"/>
<path d="M14.6377 2.8125V8.325H20.1502" stroke="white" stroke-width="2" stroke-linecap="round" stroke-linejoin="round"/>
</svg>
