<svg width="25" height="24" viewBox="0 0 25 24" fill="none" xmlns="http://www.w3.org/2000/svg">
<path d="M12.8 14.3466C14.0959 14.3466 15.1465 13.296 15.1465 12C15.1465 10.704 14.0959 9.65341 12.8 9.65341C11.504 9.65341 10.4534 10.704 10.4534 12C10.4534 13.296 11.504 14.3466 12.8 14.3466Z" stroke="white" stroke-width="2" stroke-linecap="round" stroke-linejoin="round"/>
<path d="M18.8546 14.4545C18.7457 14.7013 18.7132 14.9751 18.7613 15.2405C18.8094 15.5059 18.936 15.7508 19.1246 15.9436L19.1737 15.9927C19.3258 16.1447 19.4465 16.3252 19.5289 16.5238C19.6112 16.7225 19.6536 16.9354 19.6536 17.1505C19.6536 17.3655 19.6112 17.5784 19.5289 17.7771C19.4465 17.9757 19.3258 18.1562 19.1737 18.3082C19.0217 18.4603 18.8412 18.581 18.6426 18.6634C18.4439 18.7457 18.231 18.7881 18.016 18.7881C17.8009 18.7881 17.588 18.7457 17.3893 18.6634C17.1907 18.581 17.0102 18.4603 16.8582 18.3082L16.8091 18.2591C16.6163 18.0705 16.3714 17.9439 16.106 17.8958C15.8406 17.8477 15.5668 17.8802 15.32 17.9891C15.0781 18.0928 14.8717 18.265 14.7263 18.4845C14.5809 18.704 14.5029 18.9613 14.5019 19.2245V19.3636C14.5019 19.7976 14.3295 20.2138 14.0226 20.5207C13.7157 20.8276 13.2995 21 12.8655 21C12.4315 21 12.0153 20.8276 11.7084 20.5207C11.4015 20.2138 11.2291 19.7976 11.2291 19.3636V19.29C11.2228 19.0192 11.1351 18.7565 10.9776 18.5362C10.82 18.3159 10.5997 18.1481 10.3455 18.0545C10.0987 17.9456 9.82498 17.9131 9.55957 17.9613C9.29415 18.0094 9.04924 18.1359 8.85641 18.3245L8.80732 18.3736C8.65535 18.5258 8.47488 18.6465 8.27622 18.7288C8.07757 18.8112 7.86464 18.8536 7.64959 18.8536C7.43455 18.8536 7.22162 18.8112 7.02296 18.7288C6.82431 18.6465 6.64384 18.5258 6.49187 18.3736C6.33972 18.2217 6.21903 18.0412 6.13668 17.8425C6.05433 17.6439 6.01194 17.431 6.01194 17.2159C6.01194 17.0009 6.05433 16.7879 6.13668 16.5893C6.21903 16.3906 6.33972 16.2102 6.49187 16.0582L6.54096 16.0091C6.72958 15.8163 6.85611 15.5714 6.90423 15.3059C6.95236 15.0405 6.91987 14.7668 6.81096 14.52C6.70724 14.278 6.53503 14.0716 6.31552 13.9263C6.09601 13.7809 5.83878 13.7029 5.5755 13.7018H5.43641C5.00242 13.7018 4.58621 13.5294 4.27933 13.2225C3.97245 12.9157 3.80005 12.4994 3.80005 12.0655C3.80005 11.6315 3.97245 11.2152 4.27933 10.9084C4.58621 10.6015 5.00242 10.4291 5.43641 10.4291H5.51005C5.78086 10.4228 6.04351 10.3351 6.26384 10.1775C6.48417 10.0199 6.652 9.79969 6.7455 9.54545C6.85442 9.29868 6.8869 9.02493 6.83878 8.75952C6.79066 8.4941 6.66412 8.24919 6.4755 8.05636L6.42641 8.00727C6.27427 7.8553 6.15357 7.67483 6.07122 7.47617C5.98887 7.27752 5.94649 7.06459 5.94649 6.84955C5.94649 6.6345 5.98887 6.42157 6.07122 6.22292C6.15357 6.02426 6.27427 5.84379 6.42641 5.69182C6.57839 5.53967 6.75886 5.41898 6.95751 5.33663C7.15616 5.25428 7.3691 5.21189 7.58414 5.21189C7.79918 5.21189 8.01212 5.25428 8.21077 5.33663C8.40942 5.41898 8.58989 5.53967 8.74187 5.69182L8.79096 5.74091C8.98379 5.92953 9.2287 6.05606 9.49411 6.10419C9.75953 6.15231 10.0333 6.11982 10.28 6.01091H10.3455C10.5875 5.90719 10.7939 5.73498 10.9393 5.51547C11.0846 5.29596 11.1626 5.03873 11.1637 4.77545V4.63636C11.1637 4.20237 11.3361 3.78616 11.643 3.47928C11.9498 3.1724 12.3661 3 12.8 3C13.234 3 13.6503 3.1724 13.9571 3.47928C14.264 3.78616 14.4364 4.20237 14.4364 4.63636V4.71C14.4375 4.97328 14.5155 5.23051 14.6608 5.45002C14.8062 5.66953 15.0126 5.84174 15.2546 5.94545C15.5014 6.05437 15.7751 6.08686 16.0405 6.03873C16.3059 5.99061 16.5509 5.86408 16.7437 5.67545L16.7928 5.62636C16.9447 5.47422 17.1252 5.35352 17.3239 5.27118C17.5225 5.18883 17.7355 5.14644 17.9505 5.14644C18.1655 5.14644 18.3785 5.18883 18.5771 5.27118C18.7758 5.35352 18.9563 5.47422 19.1082 5.62636C19.2604 5.77834 19.3811 5.95881 19.4634 6.15746C19.5458 6.35611 19.5882 6.56905 19.5882 6.78409C19.5882 6.99913 19.5458 7.21207 19.4634 7.41072C19.3811 7.60937 19.2604 7.78984 19.1082 7.94182L19.0591 7.99091C18.8705 8.18374 18.744 8.42865 18.6959 8.69406C18.6477 8.95948 18.6802 9.23322 18.7891 9.48V9.54545C18.8929 9.78745 19.0651 9.99383 19.2846 10.1392C19.5041 10.2846 19.7613 10.3626 20.0246 10.3636H20.1637C20.5977 10.3636 21.0139 10.536 21.3208 10.8429C21.6276 11.1498 21.8 11.566 21.8 12C21.8 12.434 21.6276 12.8502 21.3208 13.1571C21.0139 13.464 20.5977 13.6364 20.1637 13.6364H20.09C19.8268 13.6374 19.5695 13.7154 19.35 13.8608C19.1305 14.0062 18.9583 14.2126 18.8546 14.4545V14.4545Z" stroke="white" stroke-width="2" stroke-linecap="round" stroke-linejoin="round"/>
</svg>
