<svg width="25" height="24" viewBox="0 0 25 24" fill="none" xmlns="http://www.w3.org/2000/svg">
<path d="M16.3559 7.64024C16.3559 7.54033 16.2742 7.45858 16.1743 7.45858H14.9367C14.8686 7.45858 14.805 7.49719 14.7755 7.5585L12.8522 11.3915H12.7773L10.854 7.5585C10.8389 7.52861 10.8159 7.50346 10.7875 7.48583C10.759 7.4682 10.7263 7.45877 10.6928 7.45858H9.428C9.39848 7.45858 9.36896 7.4654 9.34171 7.48129C9.25316 7.52898 9.22137 7.64024 9.26905 7.72653L11.6283 12.0772H10.334C10.2341 12.0772 10.1524 12.159 10.1524 12.2589V12.8742C10.1524 12.9741 10.2341 13.0559 10.334 13.0559H12.0598V13.9415H10.334C10.2341 13.9415 10.1524 14.0232 10.1524 14.1231V14.7385C10.1524 14.8384 10.2341 14.9201 10.334 14.9201H12.0598V16.3598C12.0598 16.4597 12.1415 16.5414 12.2414 16.5414H13.3745C13.4744 16.5414 13.5562 16.4597 13.5562 16.3598V14.9179H15.2887C15.3886 14.9179 15.4704 14.8361 15.4704 14.7362V14.1209C15.4704 14.0209 15.3886 13.9392 15.2887 13.9392H13.5562V13.0536H15.2887C15.3886 13.0536 15.4704 12.9719 15.4704 12.872V12.2566C15.4704 12.1567 15.3886 12.0749 15.2887 12.0749H13.9808L16.3355 7.72426C16.3469 7.69928 16.3559 7.66976 16.3559 7.64024ZM4.75942 11.8229C4.80207 9.75339 5.64434 7.78077 7.1096 6.31869C7.84758 5.58071 8.70591 4.9994 9.66188 4.59522C10.6519 4.17741 11.7033 3.96396 12.7864 3.96396C13.8718 3.96396 14.9231 4.17513 15.9109 4.59522C16.8669 4.9994 17.7252 5.58071 18.4632 6.31869C18.6902 6.54576 18.9014 6.78418 19.0967 7.03169L17.9613 7.91954C17.9343 7.94046 17.9137 7.96859 17.9019 8.0007C17.8902 8.0328 17.8877 8.06758 17.8948 8.10103C17.9019 8.13447 17.9183 8.16523 17.9422 8.18976C17.966 8.2143 17.9962 8.23161 18.0295 8.23971L21.5899 9.10939C21.7035 9.13664 21.8147 9.05035 21.8147 8.93455L21.8329 5.26735C21.8329 5.11521 21.6581 5.02892 21.54 5.12429L20.4546 5.97354C18.6743 3.69601 15.9018 2.23595 12.7887 2.23595C7.46383 2.23595 3.13359 6.50716 3.03595 11.8138C3.03534 11.838 3.03959 11.8622 3.04845 11.8847C3.0573 11.9073 3.07059 11.9279 3.08752 11.9452C3.10445 11.9626 3.12468 11.9763 3.14702 11.9858C3.16936 11.9952 3.19336 12 3.2176 12H4.58003C4.67767 12 4.75715 11.9205 4.75942 11.8229ZM22.3824 12H21.02C20.9223 12 20.8406 12.0795 20.8383 12.1771C20.7957 14.2466 19.9534 16.2193 18.4881 17.6813C17.7569 18.4156 16.8901 19.0009 15.9359 19.4048C14.9458 19.8226 13.8945 20.0361 12.8114 20.0361C11.7282 20.0361 10.6746 19.8249 9.68686 19.4048C8.73258 19.0009 7.86579 18.4156 7.13458 17.6813C6.90751 17.4543 6.69633 17.2158 6.50105 16.9683L7.63414 16.0805C7.66118 16.0596 7.68178 16.0314 7.69355 15.9993C7.70532 15.9672 7.70778 15.9324 7.70067 15.899C7.69355 15.8655 7.67714 15.8348 7.65332 15.8103C7.6295 15.7857 7.59924 15.7684 7.56602 15.7603L4.00554 14.8906C3.892 14.8634 3.78074 14.9497 3.78074 15.0655L3.76257 18.7372C3.76257 18.8894 3.93742 18.9756 4.0555 18.8803L5.1409 18.031C6.92568 20.304 9.69822 21.7641 12.8114 21.7641C18.1362 21.7641 22.4664 17.4929 22.5641 12.1862C22.5647 12.162 22.5604 12.1379 22.5516 12.1153C22.5427 12.0927 22.5294 12.0722 22.5125 12.0548C22.4956 12.0375 22.4753 12.0237 22.453 12.0143C22.4307 12.0048 22.4067 12 22.3824 12Z" fill="white"/>
</svg>
